%
M48
M72
T01C0.0236
T02C0.0315
T03C0.0320
T04C0.0350
T05C0.0394
T06C0.0512
T07C0.0827
%
T01
X41440Y31060
X42440Y31060
X40410Y32760
X36940Y36960
X36940Y37910
X38440Y44790
X39400Y44790
X38440Y45890
X45940Y46140
X49250Y44970
X52590Y44970
X55440Y43310
X55890Y43310
X55890Y42860
X55440Y42860
X55440Y42410
X55890Y42410
X55890Y41960
X55440Y41960
X55440Y41510
X55890Y41510
X55890Y41060
X55440Y41060
X56340Y41060
X56790Y41060
X56790Y41510
X56340Y41510
X56340Y41960
X56790Y41960
X56790Y42410
X56340Y42410
X56340Y42860
X56340Y43310
X56790Y43310
X56790Y42860
X57240Y42860
X57240Y43310
X57690Y43310
X57690Y42860
X57690Y42410
X57240Y42410
X57240Y41960
X57240Y41510
X57690Y41510
X57690Y41960
X57690Y41060
X57240Y41060
X57240Y39110
X57240Y38660
X57690Y38660
X57690Y39110
X57690Y38210
X57240Y38210
X57240Y37760
X57690Y37760
X57690Y37310
X57240Y37310
X57240Y36860
X57690Y36860
X56790Y36860
X56340Y36860
X56340Y37310
X56790Y37310
X56790Y37760
X56790Y38210
X56340Y38210
X56340Y37760
X55890Y37760
X55440Y37760
X55440Y38210
X55890Y38210
X55890Y38660
X55890Y39110
X55440Y39110
X55440Y38660
X56340Y38660
X56340Y39110
X56790Y39110
X56790Y38660
X55890Y37310
X55440Y37310
X55440Y36860
X55890Y36860
X54290Y36720
X54290Y35810
X49590Y40760
X61590Y46608
X65590Y46608
T02
X64590Y46608
X63590Y46608
X62590Y46608
X52040Y37028
X50082Y35000
X49082Y35000
X47040Y37028
X42940Y37760
X44615Y32863
X45615Y32863
X42940Y32760
X38368Y31056
X37669Y31754
X36970Y31056
X33950Y32440
X33950Y33440
X33950Y34440
X33950Y35440
X33950Y36440
X33950Y37440
X33950Y38440
X33950Y39440
X33950Y40440
X33950Y41440
X33940Y43622
X34940Y43622
X35940Y43622
X36940Y43622
X37940Y43622
X38940Y43622
X39940Y43622
X40940Y43622
X41940Y43622
X42940Y43622
X43940Y43622
X44940Y43622
X45940Y43622
X46940Y43622
X46940Y47622
X45940Y47622
X44940Y47622
X43940Y47622
X42940Y47622
X41940Y47622
X40940Y47622
X39940Y47622
X38940Y47622
X37940Y47622
X36940Y47622
X35940Y47622
X34940Y47622
X33940Y47622
X49083Y32759
X50083Y32759
X52090Y32760
X52090Y31760
X52090Y30760
X53090Y30760
X53090Y31760
X53090Y32760
X54090Y32760
X54090Y31760
X54090Y30760
X55090Y30760
X56090Y30760
X56090Y31760
X55090Y31760
X55090Y32760
X56090Y32760
X57090Y32760
X57090Y31760
X57090Y30760
X58090Y30760
X58090Y31760
X58090Y32760
X59090Y32760
X59090Y31760
X59090Y30760
X60090Y30760
X60090Y31760
X60090Y32760
X61090Y32760
X61090Y31760
X61090Y30760
X62090Y30760
X62090Y31760
X63090Y31760
X63090Y30760
X63090Y29760
X62090Y29760
X61090Y29760
X60090Y29760
X59090Y29760
X58090Y29760
X57090Y29760
X56090Y29760
X55090Y29760
X54090Y29760
X53090Y29760
X52090Y29760
X62090Y34760
X63090Y34760
X64090Y34760
X65090Y34760
X66090Y34760
T03
X51437Y39938
X50437Y39938
X50427Y43138
X51427Y43138
T04
X59919Y43243
X59919Y42343
X59919Y41443
X59919Y39043
X59919Y38143
X59919Y37243
T05
X60620Y45619
X60620Y47641
X57560Y47641
X56220Y47641
X56220Y45619
X57560Y45619
X53160Y45619
X53160Y47641
T06
X65079Y43333
X65079Y41333
X65079Y39133
X65079Y37133
T07
X33881Y29555
X33877Y48827
X66161Y48827
X66161Y29555
M30
