G75*
%MOIN*%
%OFA0B0*%
%FSLAX24Y24*%
%IPPOS*%
%LPD*%
%AMOC8*
5,1,8,0,0,1.08239X$1,22.5*
%
%ADD10C,0.0907*%
%ADD11OC8,0.0560*%
%ADD12C,0.0552*%
%ADD13C,0.0552*%
%ADD14C,0.0316*%
%ADD15C,0.1080*%
%ADD16C,0.0605*%
%ADD17C,0.0740*%
%ADD18C,0.0671*%
%ADD19C,0.0434*%
D10*
X033881Y029555D03*
X033877Y048827D03*
X066161Y048827D03*
X066161Y029555D03*
D11*
X051437Y039938D03*
X050437Y039938D03*
X050427Y043138D03*
X051427Y043138D03*
D12*
X050082Y035000D03*
X049082Y035000D03*
X049083Y032759D03*
X050083Y032759D03*
X052090Y032760D03*
X052090Y031760D03*
X052090Y030760D03*
X053090Y030760D03*
X053090Y031760D03*
X053090Y032760D03*
X054090Y032760D03*
X054090Y031760D03*
X054090Y030760D03*
X055090Y030760D03*
X056090Y030760D03*
X056090Y031760D03*
X055090Y031760D03*
X055090Y032760D03*
X056090Y032760D03*
X057090Y032760D03*
X057090Y031760D03*
X057090Y030760D03*
X058090Y030760D03*
X058090Y031760D03*
X058090Y032760D03*
X059090Y032760D03*
X059090Y031760D03*
X059090Y030760D03*
X060090Y030760D03*
X060090Y031760D03*
X060090Y032760D03*
X061090Y032760D03*
X061090Y031760D03*
X061090Y030760D03*
X062090Y030760D03*
X062090Y031760D03*
X063090Y031760D03*
X063090Y030760D03*
X063090Y029760D03*
X062090Y029760D03*
X061090Y029760D03*
X060090Y029760D03*
X059090Y029760D03*
X058090Y029760D03*
X057090Y029760D03*
X056090Y029760D03*
X055090Y029760D03*
X054090Y029760D03*
X053090Y029760D03*
X052090Y029760D03*
X045615Y032863D03*
X044615Y032863D03*
X038368Y031056D03*
X037669Y031754D03*
X036970Y031056D03*
D13*
X034186Y032440D02*
X033714Y032440D01*
X033714Y033440D02*
X034186Y033440D01*
X034186Y034440D02*
X033714Y034440D01*
X033714Y035440D02*
X034186Y035440D01*
X034186Y036440D02*
X033714Y036440D01*
X033714Y037440D02*
X034186Y037440D01*
X034186Y038440D02*
X033714Y038440D01*
X033714Y039440D02*
X034186Y039440D01*
X034186Y040440D02*
X033714Y040440D01*
X033714Y041440D02*
X034186Y041440D01*
X033940Y043386D02*
X033940Y043858D01*
X034940Y043858D02*
X034940Y043386D01*
X035940Y043386D02*
X035940Y043858D01*
X036940Y043858D02*
X036940Y043386D01*
X037940Y043386D02*
X037940Y043858D01*
X038940Y043858D02*
X038940Y043386D01*
X039940Y043386D02*
X039940Y043858D01*
X040940Y043858D02*
X040940Y043386D01*
X041940Y043386D02*
X041940Y043858D01*
X042940Y043858D02*
X042940Y043386D01*
X043940Y043386D02*
X043940Y043858D01*
X044940Y043858D02*
X044940Y043386D01*
X045940Y043386D02*
X045940Y043858D01*
X046940Y043858D02*
X046940Y043386D01*
X046940Y047386D02*
X046940Y047858D01*
X045940Y047858D02*
X045940Y047386D01*
X044940Y047386D02*
X044940Y047858D01*
X043940Y047858D02*
X043940Y047386D01*
X042940Y047386D02*
X042940Y047858D01*
X041940Y047858D02*
X041940Y047386D01*
X040940Y047386D02*
X040940Y047858D01*
X039940Y047858D02*
X039940Y047386D01*
X038940Y047386D02*
X038940Y047858D01*
X037940Y047858D02*
X037940Y047386D01*
X036940Y047386D02*
X036940Y047858D01*
X035940Y047858D02*
X035940Y047386D01*
X034940Y047386D02*
X034940Y047858D01*
X033940Y047858D02*
X033940Y047386D01*
X062090Y034996D02*
X062090Y034524D01*
X063090Y034524D02*
X063090Y034996D01*
X064090Y034996D02*
X064090Y034524D01*
X065090Y034524D02*
X065090Y034996D01*
X066090Y034996D02*
X066090Y034524D01*
X064590Y046372D02*
X064590Y046844D01*
X063590Y046844D02*
X063590Y046372D01*
X062590Y046372D02*
X062590Y046844D01*
D14*
X061590Y046608D03*
X065590Y046608D03*
D15*
X065079Y043333D03*
X065079Y041333D03*
X065079Y039133D03*
X065079Y037133D03*
D16*
X060182Y037243D02*
X059657Y037243D01*
X059657Y038143D02*
X060182Y038143D01*
X060182Y039043D02*
X059657Y039043D01*
X059657Y041443D02*
X060182Y041443D01*
X060182Y042343D02*
X059657Y042343D01*
X059657Y043243D02*
X060182Y043243D01*
D17*
X052040Y037028D03*
X047040Y037028D03*
X042940Y037760D03*
X042940Y032760D03*
D18*
X053160Y045619D03*
X053160Y047641D03*
X056220Y047641D03*
X057560Y047641D03*
X057560Y045619D03*
X056220Y045619D03*
X060620Y045619D03*
X060620Y047641D03*
D19*
X057690Y043310D03*
X057240Y043310D03*
X057240Y042860D03*
X057690Y042860D03*
X057690Y042410D03*
X057240Y042410D03*
X057240Y041960D03*
X057240Y041510D03*
X057690Y041510D03*
X057690Y041960D03*
X057690Y041060D03*
X057240Y041060D03*
X056790Y041060D03*
X056340Y041060D03*
X056340Y041510D03*
X056790Y041510D03*
X056790Y041960D03*
X056340Y041960D03*
X056340Y042410D03*
X056790Y042410D03*
X056790Y042860D03*
X056790Y043310D03*
X056340Y043310D03*
X056340Y042860D03*
X055890Y042860D03*
X055890Y043310D03*
X055440Y043310D03*
X055440Y042860D03*
X055440Y042410D03*
X055890Y042410D03*
X055890Y041960D03*
X055440Y041960D03*
X055440Y041510D03*
X055890Y041510D03*
X055890Y041060D03*
X055440Y041060D03*
X055440Y039110D03*
X055890Y039110D03*
X055890Y038660D03*
X055440Y038660D03*
X055440Y038210D03*
X055440Y037760D03*
X055890Y037760D03*
X055890Y038210D03*
X056340Y038210D03*
X056790Y038210D03*
X056790Y037760D03*
X056340Y037760D03*
X056340Y037310D03*
X056790Y037310D03*
X056790Y036860D03*
X056340Y036860D03*
X055890Y036860D03*
X055440Y036860D03*
X055440Y037310D03*
X055890Y037310D03*
X054290Y036720D03*
X054290Y035810D03*
X057240Y036860D03*
X057690Y036860D03*
X057690Y037310D03*
X057240Y037310D03*
X057240Y037760D03*
X057240Y038210D03*
X057690Y038210D03*
X057690Y037760D03*
X057690Y038660D03*
X057240Y038660D03*
X057240Y039110D03*
X057690Y039110D03*
X056790Y039110D03*
X056340Y039110D03*
X056340Y038660D03*
X056790Y038660D03*
X049590Y040760D03*
X049250Y044970D03*
X052590Y044970D03*
X045940Y046140D03*
X039400Y044790D03*
X038440Y044790D03*
X038440Y045890D03*
X036940Y037910D03*
X036940Y036960D03*
X040410Y032760D03*
X041440Y031060D03*
X042440Y031060D03*
M02*
